<svg width="35" height="35" viewBox="0 0 35 35" fill="none" xmlns="http://www.w3.org/2000/svg">
<g clip-path="url(#clip0)">
<path d="M33.7844 10.3701C33.9843 10.7104 33.9804 11.0463 33.7726 11.3779L21.4647 30.3242C21.3083 30.5621 21.0795 30.6997 20.7783 30.7373C20.6232 30.7541 20.4703 30.7297 20.3196 30.664C20.222 30.6215 20.1253 30.553 20.0293 30.4584L15.0763 25.3721L10.1476 27.8932C9.89916 28.0276 9.63747 28.0349 9.36259 27.9151C9.24731 27.8649 9.1575 27.8046 9.09315 27.7344C8.95172 27.5989 8.8619 27.4358 8.82368 27.245C8.78547 27.0543 8.805 26.8702 8.88228 26.6929L10.9051 22.0509L28.5352 12.9731L8.95513 19.0804L4.64025 14.6361C4.36626 14.369 4.29517 14.0479 4.427 13.6727C4.56383 13.3103 4.81969 13.1106 5.1946 13.0735L32.8916 9.94936C33.0594 9.92752 33.2186 9.94944 33.3694 10.0151C33.5467 10.0924 33.6851 10.2107 33.7844 10.3701Z" fill="white"/>
</g>
<defs>
<clipPath id="clip0">
<rect width="26" height="26" fill="white" transform="translate(10.3867) rotate(23.5461)"/>
</clipPath>
</defs>
</svg>
