<svg width="46" height="46" viewBox="0 0 46 46" fill="none" xmlns="http://www.w3.org/2000/svg">
<path fill-rule="evenodd" clip-rule="evenodd" d="M13.9549 11.9197C14.0888 12.0532 14.195 12.2118 14.2674 12.3865C14.3399 12.5611 14.3772 12.7483 14.3772 12.9374C14.3772 13.1265 14.3399 13.3137 14.2674 13.4884C14.195 13.663 14.0888 13.8216 13.9549 13.9552L4.90727 22.9999L13.9549 32.0447C14.2248 32.3146 14.3765 32.6807 14.3765 33.0624C14.3765 33.4441 14.2248 33.8102 13.9549 34.0802C13.685 34.3501 13.3189 34.5017 12.9371 34.5017C12.5554 34.5017 12.1893 34.3501 11.9194 34.0802L1.85689 24.0177C1.72302 23.8841 1.61681 23.7255 1.54434 23.5509C1.47187 23.3762 1.43457 23.189 1.43457 22.9999C1.43457 22.8108 1.47187 22.6236 1.54434 22.449C1.61681 22.2743 1.72302 22.1157 1.85689 21.9822L11.9194 11.9197C12.0529 11.7858 12.2116 11.6796 12.3862 11.6071C12.5608 11.5346 12.7481 11.4973 12.9371 11.4973C13.1262 11.4973 13.3134 11.5346 13.4881 11.6071C13.6627 11.6796 13.8214 11.7858 13.9549 11.9197ZM32.0444 11.9197C31.9105 12.0532 31.8043 12.2118 31.7318 12.3865C31.6594 12.5611 31.6221 12.7483 31.6221 12.9374C31.6221 13.1265 31.6594 13.3137 31.7318 13.4884C31.8043 13.663 31.9105 13.8216 32.0444 13.9552L41.092 22.9999L32.0444 32.0447C31.9107 32.1783 31.8047 32.337 31.7324 32.5116C31.6601 32.6862 31.6228 32.8734 31.6228 33.0624C31.6228 33.2514 31.6601 33.4386 31.7324 33.6132C31.8047 33.7878 31.9107 33.9465 32.0444 34.0802C32.178 34.2138 32.3367 34.3198 32.5113 34.3922C32.686 34.4645 32.8731 34.5017 33.0621 34.5017C33.2512 34.5017 33.4383 34.4645 33.6129 34.3922C33.7876 34.3198 33.9462 34.2138 34.0799 34.0802L44.1424 24.0177C44.2763 23.8841 44.3825 23.7255 44.4549 23.5509C44.5274 23.3762 44.5647 23.189 44.5647 22.9999C44.5647 22.8108 44.5274 22.6236 44.4549 22.449C44.3825 22.2743 44.2763 22.1157 44.1424 21.9822L34.0799 11.9197C33.9464 11.7858 33.7877 11.6796 33.6131 11.6071C33.4384 11.5346 33.2512 11.4973 33.0621 11.4973C32.8731 11.4973 32.6858 11.5346 32.5112 11.6071C32.3366 11.6796 32.1779 11.7858 32.0444 11.9197ZM29.1723 2.93816C29.5363 3.05078 29.8406 3.3033 30.0185 3.64023C30.1964 3.97717 30.2333 4.37094 30.121 4.73503L18.621 42.11C18.4979 42.4605 18.2438 42.7497 17.9121 42.917C17.5805 43.0843 17.1969 43.1167 16.8418 43.0074C16.4868 42.8981 16.1879 42.6556 16.0077 42.3307C15.8275 42.0058 15.7801 41.6238 15.8754 41.2648L27.3754 3.88978C27.488 3.5258 27.7405 3.22141 28.0775 3.04351C28.4144 2.86561 28.8082 2.82875 29.1723 2.94103V2.93816Z" fill="url(#paint0_linear)"/>
<defs>
<linearGradient id="paint0_linear" x1="22.9996" y1="2.8772" x2="22.9996" y2="43.071" gradientUnits="userSpaceOnUse">
<stop stop-color="#58D4EC"/>
<stop offset="1" stop-color="#B987F3"/>
</linearGradient>
</defs>
</svg>
