<svg width="36" height="42" viewBox="0 0 36 42" fill="none" xmlns="http://www.w3.org/2000/svg">
<path d="M18.0532 27.8445C18.159 27.8791 18.2296 27.9482 18.2649 28.052C18.3002 28.1557 18.2826 28.2594 18.212 28.3631L13.8179 32.6668C13.112 33.3581 12.3002 33.9112 11.3826 34.326C10.4649 34.7408 9.52962 34.9828 8.57668 35.052C7.62374 35.1211 6.6708 35.052 5.71786 34.8445C4.76492 34.6371 3.90021 34.205 3.12374 33.5482C2.1708 32.8223 1.42962 31.9408 0.900212 30.9038C0.3708 29.8668 0.0884468 28.8297 0.0531527 27.7927C0.0178586 26.7557 0.176682 25.7013 0.529623 24.6297C0.882564 23.5581 1.48256 22.6248 2.32962 21.8297L9.15904 15.1408C10.2532 14.0692 11.5237 13.2742 12.9708 12.7557C14.4179 12.2371 15.9002 12.0989 17.4179 12.3408C18.759 12.5482 19.8179 12.9285 20.5943 13.4816C21.3708 14.0347 21.9884 14.6742 22.4473 15.4001C22.5179 15.5729 22.509 15.7026 22.4208 15.789C22.3326 15.8754 22.2355 15.9532 22.1296 16.0223C22.0237 16.0915 21.9002 16.1952 21.759 16.3334L21.3884 16.6964C21.0355 17.0766 20.612 17.2668 20.1179 17.2668C19.6237 17.2668 19.1737 17.068 18.7679 16.6705C18.362 16.2729 17.912 15.9705 17.4179 15.7631C16.9237 15.5557 16.3767 15.4692 15.7767 15.5038C15.1767 15.5384 14.6473 15.6248 14.1884 15.7631C13.7296 15.9013 13.2532 16.2124 12.759 16.6964L4.92374 24.3705C4.46492 24.8199 4.12962 25.3384 3.91786 25.926C3.70609 26.5137 3.63551 27.1013 3.70609 27.689C3.77668 28.2766 3.95315 28.8643 4.23551 29.452C4.51786 30.0396 4.97668 30.5063 5.61198 30.852C6.49433 31.4396 7.44727 31.647 8.4708 31.4742C9.49433 31.3013 10.359 30.8865 11.0649 30.2297L14.4532 26.9631C14.5237 26.8594 14.6296 26.8421 14.7708 26.9112C15.8296 27.3606 16.9237 27.6717 18.0532 27.8445ZM32.7708 1.6075C33.7237 2.33343 34.4649 3.19763 34.9943 4.20009C35.5237 5.20256 35.8237 6.2396 35.8943 7.31121C35.9649 8.38281 35.8061 9.45442 35.4179 10.526C35.0296 11.5976 34.412 12.531 33.5649 13.326L26.7355 20.0149C25.6414 21.0865 24.3708 21.8643 22.9237 22.3482C21.4767 22.8322 19.9767 22.9705 18.4237 22.7631C17.0826 22.5902 16.0414 22.21 15.3002 21.6223C14.559 21.0347 13.9414 20.3952 13.4473 19.7038C13.3767 19.5655 13.3943 19.4445 13.5002 19.3408L14.4532 18.4075C14.8414 18.0618 15.2826 17.889 15.7767 17.889C16.2708 17.889 16.6943 18.0618 17.0473 18.4075C17.4708 18.8223 17.9473 19.1334 18.4767 19.3408C19.0061 19.5482 19.5532 19.6519 20.1179 19.6519C20.6826 19.6519 21.2296 19.5482 21.759 19.3408C22.2884 19.1334 22.7473 18.8223 23.1355 18.4075L30.9708 10.7853C31.4296 10.3359 31.7649 9.8001 31.9767 9.17787C32.1884 8.55565 32.259 7.95071 32.1884 7.36306C32.1179 6.7754 31.9237 6.20503 31.6061 5.65195C31.2884 5.09886 30.8296 4.63219 30.2296 4.25195C29.3826 3.69886 28.4473 3.49145 27.4237 3.62972C26.4002 3.768 25.5179 4.20009 24.7767 4.92602L21.4414 8.19269C21.3355 8.29639 21.2296 8.31367 21.1237 8.24454C20.1355 7.82972 19.0414 7.50133 17.8414 7.25935C17.7002 7.25935 17.6296 7.19022 17.6296 7.05195C17.6296 6.91368 17.6473 6.82726 17.6826 6.79269L22.0767 2.48898C22.7826 1.79762 23.5943 1.24454 24.512 0.829724C25.4296 0.414909 26.3473 0.155649 27.2649 0.0519457C28.1826 -0.051758 29.1355 0.0346618 30.1237 0.311205C31.112 0.587748 31.9943 1.01985 32.7708 1.6075Z" fill="url(#paint0_linear)"/>
<defs>
<linearGradient id="paint0_linear" x1="17.9795" y1="0.00952148" x2="17.9795" y2="35.0779" gradientUnits="userSpaceOnUse">
<stop stop-color="#58D4EC"/>
<stop offset="1" stop-color="#B987F3"/>
</linearGradient>
</defs>
</svg>
