<svg width="48" height="48" viewBox="0 0 48 48" fill="none" xmlns="http://www.w3.org/2000/svg">
<path fill-rule="evenodd" clip-rule="evenodd" d="M8.001 10.5C6.066 10.5 4.5 12.066 4.5 14.001V33.999C4.5 35.934 6.066 37.5 8.001 37.5H27.999C29.934 37.5 31.5 35.934 31.5 33.999V14.001C31.5 12.066 29.934 10.5 27.999 10.5H8.001ZM1.5 14.001C1.5 10.41 4.41 7.5 8.001 7.5H27.999C31.59 7.5 34.5 10.41 34.5 14.001V33.999C34.5 37.59 31.59 40.5 27.999 40.5H8.001C6.27683 40.5 4.62327 39.8151 3.4041 38.5959C2.18492 37.3767 1.5 35.7232 1.5 33.999V14.001Z" fill="url(#paint0_linear)"/>
<path fill-rule="evenodd" clip-rule="evenodd" d="M33.7501 16.9496L42.0541 12.1346C42.1968 12.0486 42.3595 12.0015 42.526 11.998C42.6926 11.9944 42.8572 12.0345 43.0034 12.1143C43.1497 12.1941 43.2725 12.3108 43.3596 12.4528C43.4467 12.5948 43.4952 12.7571 43.5001 12.9236V35.0756C43.5001 35.7596 42.7201 36.2546 42.0541 35.8676L33.7531 31.0526L32.2471 33.6476L40.5481 38.4626C43.1251 39.9566 46.5001 38.1776 46.5001 35.0756V12.9236C46.5001 9.82464 43.1251 8.04564 40.5481 9.53964L32.2501 14.3546L33.7561 16.9496H33.7501Z" fill="url(#paint1_linear)"/>
<defs>
<linearGradient id="paint0_linear" x1="18" y1="7.5" x2="18" y2="40.5" gradientUnits="userSpaceOnUse">
<stop stop-color="#58D4EC"/>
<stop offset="1" stop-color="#B987F3"/>
</linearGradient>
<linearGradient id="paint1_linear" x1="39.3736" y1="9.0022" x2="39.3736" y2="39" gradientUnits="userSpaceOnUse">
<stop stop-color="#58D4EC"/>
<stop offset="1" stop-color="#B987F3"/>
</linearGradient>
</defs>
</svg>
